<?xml version="1.0" standalone="no"?>
<!DOCTYPE svg PUBLIC "-//W3C//DTD SVG 20010904//EN"
 "http://www.w3.org/TR/2001/REC-SVG-20010904/DTD/svg10.dtd">
<svg version="1.0" xmlns="http://www.w3.org/2000/svg"
 width="500.000000pt" height="500.000000pt" viewBox="0 0 500.000000 500.000000"
 preserveAspectRatio="xMidYMid meet">

<g transform="translate(0.000000,500.000000) scale(0.100000,-0.100000)"
fill="#000000" stroke="none">
<path d="M1075 4308 c18 -40 256 -543 529 -1117 l496 -1045 0 -568 0 -569 103
3 102 3 3 588 2 587 -522 1095 -522 1095 -113 0 -112 0 34 -72z"/>
<path d="M1630 4372 c0 -16 878 -1973 885 -1973 6 0 885 1964 885 1977 0 2
-51 4 -113 4 l-113 0 -329 -740 c-242 -541 -333 -736 -340 -725 -5 8 -153 339
-330 737 l-320 723 -113 3 c-61 1 -112 -1 -112 -6z"/>
<path d="M3712 4338 c-11 -24 -245 -520 -521 -1102 l-501 -1059 2 -581 3 -581
103 -3 102 -3 0 566 0 566 529 1119 529 1120 -114 0 -113 0 -19 -42z"/>
</g>
</svg>
